<?xml version="1.0" encoding="UTF-8" standalone="no"?>
<!DOCTYPE svg PUBLIC "-//W3C//DTD SVG 1.1//EN" "http://www.w3.org/Graphics/SVG/1.1/DTD/svg11.dtd">
<svg width="100%" height="100%" viewBox="0 0 1595 1241" version="1.1" xmlns="http://www.w3.org/2000/svg" xmlns:xlink="http://www.w3.org/1999/xlink" xml:space="preserve" xmlns:serif="http://www.serif.com/" style="fill-rule:evenodd;clip-rule:evenodd;stroke-linejoin:round;stroke-miterlimit:2;">
    <g transform="matrix(1,0,0,1,-384.021,-561.024)">
        <g transform="matrix(1.43833,0,0,1.65533,-272.966,-239.381)">
            <g transform="matrix(1,0,0,1,-37.6602,53.2122)">
                <g transform="matrix(0.695249,0,0,0.604108,440.635,148.838)">
                    <path d="M962.875,775.984L1140.04,1086.02L1494.37,465.945L1671.54,775.394L1671.54,1706.1L1317.21,1706.1L1317.21,1396.06L1140.04,1706.06L785.935,1086.02L608.545,775.394L785.935,465.945L962.875,775.984Z"/>
                </g>
                <g transform="matrix(0.695249,0,0,0.604108,243.402,145.11)">
                    <path d="M1388.3,1711.9L361.062,1711.9L867.4,816.998L1388.3,1711.9Z"/>
                </g>
            </g>
        </g>
    </g>
</svg>
